<svg version="1.1"
							 xmlns="http://www.w3.org/2000/svg" xmlns:xlink="http://www.w3.org/1999/xlink" xmlns:a="http://ns.adobe.com/AdobeSVGViewerExtensions/3.0/"
							 x="0px" y="0px" width="29.4px" height="34.6px" viewBox="0 0 29.4 34.6" enable-background="new 0 0 29.4 34.6"
							 xml:space="preserve">
						<defs>
						</defs>
						<path fill="#EE386D" d="M11.7,6.7c-0.2,0.1-0.4,0.1-0.6,0.1C11.2,6.8,11.4,6.7,11.7,6.7C11.6,6.7,11.6,6.7,11.7,6.7z"/>
						<path fill="#77C8AD" d="M11.7,6.7c-0.2,0.1-0.4,0.1-0.6,0.1C11.2,6.8,11.4,6.7,11.7,6.7C11.6,6.7,11.6,6.7,11.7,6.7z"/>
						<path fill="#6AB7B3" d="M28.1,20.5c0,0.1,0,0.2,0,0.4c-0.1,3.8-1.7,7.3-4.3,9.7c-0.1,0.1-0.2,0.2-0.4,0.3c-0.7,0.7-1.6,1.3-2.5,1.8
							c-0.2,0.1-0.4,0.2-0.6,0.3c-1.9,1-4.1,1.5-6.3,1.5c-2.5,0-4.9-0.7-6.9-1.8c-1-0.6-2-1.3-2.8-2.1C1.7,28.1,0,24.5,0,20.5
							c0-0.7,0.1-1.5,0.2-2.2v0c0.2-1.2,0.5-2.4,1-3.5c1.4-3.1,3.9-5.7,7-7.1C9.1,7.4,10,7,11,6.8c0.2,0,0.4-0.1,0.6-0.1
							c1.5-0.5,2.7-1.9,2.7-3.7c0-1.2-0.5-2.3-1.4-3c8.6,2.7,14.9,10.7,15.1,20.2C28.1,20.3,28.1,20.4,28.1,20.5z"/>
						<path fill="#88CEB5" d="M24.1,30.1c-0.1,0.1-0.1,0.1-0.2,0.2c-2.3,2.3-5.4,3.4-8.4,3.4c-0.1,0-0.3,0-0.4,0c-0.8,0-1.7-0.2-2.5-0.4
							c-0.2,0-0.4-0.1-0.5-0.2c-1.7-0.5-3.3-1.5-4.7-2.8c-1.5-1.5-2.5-3.3-3.1-5.2c-0.3-1-0.4-1.9-0.4-2.9c-0.1-3.1,1.1-6.3,3.5-8.7
							c0.4-0.4,0.9-0.8,1.4-1.2l0,0c0.9-0.6,1.8-1.2,2.7-1.5c2.7-1.1,5.7-1.1,8.4-0.2c0.8,0.3,1.5,0.6,2.2,1.1c0.1,0.1,0.3,0.2,0.5,0.3
							c1.2,0.6,2.8,0.4,3.8-0.7c0.7-0.7,1-1.7,1-2.6c3.6,6.7,2.6,15.3-3,21.1C24.2,30,24.2,30,24.1,30.1z"/>
						<linearGradient id="SVGID_1_" gradientUnits="userSpaceOnUse" x1="11.3354" y1="7.0102" x2="11.3354" y2="6.7034">
							<stop  offset="0" style="stop-color:#2F5157"/>
							<stop  offset="1" style="stop-color:#8CA494"/>
						</linearGradient>
						<path fill="url(#SVGID_1_)" d="M11.7,6.7c-0.2,0.1-0.4,0.1-0.6,0.1C11.2,6.8,11.4,6.7,11.7,6.7C11.6,6.7,11.6,6.7,11.7,6.7z"/>
						<path fill="#3E6D72" d="M23.4,31c-0.7,0.7-1.6,1.3-2.5,1.8c-0.2,0.1-0.4,0.2-0.6,0.3L10.7,26l-2.8-2.1l-7.7-5.6v0
							c0.2-1.2,0.5-2.4,1-3.5l8.2,6l2.8,2.1l5.8,4.2l0,0L23.4,31z"/>
						<path fill="#112A37" d="M23.8,30.6c-0.1,0.1-0.2,0.2-0.4,0.3c-0.7,0.7-1.6,1.3-2.5,1.8l-2.9-5.6l0,0l-3.9-7.7l-1.9-3.8l-4-7.8
							c1.1-0.5,2.2-0.8,3.4-1L23.8,30.6z"/>
						<path fill="#112A37" d="M15.8,16.1l-1.7,3.2l-1.9,3.5L10.7,26l-3.5,6.8c-1-0.6-2-1.3-2.8-2.1l3.5-6.7l1.6-3.1l2.8-5.3l0.5-1
							L15.8,16.1z"/>
						</svg>